<svg aria-hidden="true" style="position: absolute; width: 0; height: 0; overflow: hidden;" version="1.1" xmlns="http://www.w3.org/2000/svg" xmlns:xlink="http://www.w3.org/1999/xlink">
<defs>
<symbol id="icon-bird" viewBox="0 0 48 48">
<path d="M44.009 18h2.99c0.26 0 0.52-0.1 0.72-0.29 0.39-0.39 0.39-1.030 0-1.42-0.271-0.26-3.62-4.29-3.62-4.29s3.35-4.030 3.62-4.29c0.39-0.39 0.39-1.030 0-1.42-0.2-0.19-0.46-0.29-0.72-0.29h-4.811c-2.189-3.6-6.16-6-10.68-6-6.9 0-12.5 5.6-12.5 12.5 0 4.14-3.36 7.5-7.5 7.5h-9.519c-1.101 0-2 0.9-2 2l0.010 0.27c0.89 8.7 6.979 15.9 15.010 18.59v4.64c0 1.38 1.12 2.5 2.5 2.5s2.5-1.12 2.5-2.5v-3.59c0.66 0.060 1.33 0.090 2 0.090s1.34-0.030 2-0.090v3.59c0 1.38 1.12 2.5 2.5 2.5s2.5-1.12 2.5-2.5v-4.64c8.72-2.921 15-11.16 15-20.86l-0-2zM32.009 8.5c0-1.38 1.12-2.5 2.5-2.5s2.5 1.12 2.5 2.5-1.12 2.5-2.5 2.5-2.5-1.12-2.5-2.5zM24.249 23.26c1.41 3.061 0.859 6.801-1.66 9.32-2.48 2.49-6.16 3.061-9.19 1.71l-0.32-0.17c-0.64-0.34-1.069-1.010-1.069-1.78 0-0.59 0.25-1.12 0.65-1.49 0.199-0.18 8.27-8.26 8.27-8.26 0.79-0.79 2.070-0.79 2.85 0 0.12 0.12 0.23 0.25 0.311 0.39l0.158 0.28z"></path>
</symbol>
<symbol id="icon-pictures" viewBox="0 0 48 48">
<path d="M34 12.5c0 1.38 1.12 2.5 2.5 2.5s2.5-1.12 2.5-2.5-1.12-2.5-2.5-2.5-2.5 1.12-2.5 2.5zM9 26v2.75c0 1.24 1.010 2.25 2.25 2.25h27.75l-9.561-9.4c-0.8-0.8-2.080-0.8-2.879 0l-2.021 1.99-5.101-4.99c-0.8-0.8-2.239-0.8-3.029 0l-7.409 7.4zM0 43c0 2.21 1.79 4 4 4h40c2.21 0 4-1.79 4-4l-0-38c0-2.21-1.79-4-4-4l-40 0c-2.21 0-4 1.79-4 4v38zM7.2 6h33.6c1.22 0 2.2 0.98 2.2 2.2v24.6c0 1.22-0.98 2.2-2.2 2.2l-33.6-0c-1.22 0-2.2-0.98-2.2-2.2v-24.6c0-1.22 0.98-2.2 2.2-2.2z"></path>
</symbol>
<symbol id="icon-music" viewBox="0 0 48 48">
<path d="M15 29.93c-1.2-0.59-2.56-0.93-4-0.93-4.97 0-9 4.030-9 9 0 4.971 4.030 9 9 9s9-4.029 9-9v-20c0-1.1 0.9-2 2-2h17c1.1 0 2 0.9 2 2v11.93c-1.2-0.59-2.561-0.93-4-0.93-4.971 0-9 4.030-9 9 0 4.971 4.029 9 9 9s9-4.029 9-9v-33.8c0-1.22-0.98-2.2-2.2-2.2h-26.6c-1.22 0-2.2 0.98-2.2 2.2v25.73z"></path>
</symbol>
<symbol id="icon-headphone" viewBox="0 0 48 48">
<path d="M0 42.5c0 1.38 1.12 2.5 2.5 2.5 1.21 0 2.22-0.859 2.45-2h0.050c0-1.1 0.9-2 2-2s2 0.9 2 2v1c0 2.21 1.79 4 4 4h4c2.21 0 4-1.79 4-4v-15c0-2.21-1.79-4-4-4h-4c-2.21 0-4 1.79-4 4v1c0 1.1-0.9 2-2 2s-2-0.9-2-2v-6c0-10.49 8.51-19 19-19s19 8.51 19 19v6c0 1.1-0.9 2-2 2s-2-0.9-2-2v-1c0-2.21-1.79-4-4-4h-4c-2.21 0-4 1.79-4 4v15c0 2.21 1.79 4 4 4h4c2.21 0 4-1.79 4-4v-1c0-1.1 0.9-2 2-2s2 0.9 2 2h0.050c0.229 1.141 1.24 2 2.45 2 1.38 0 2.5-1.12 2.5-2.5v-18.5c0-13.26-10.74-24-24-24s-24 10.74-24 24v18.5z"></path>
</symbol>
<symbol id="icon-cassette" viewBox="0 0 48 48">
<path d="M32 24c0 1.66 1.34 3 3 3s3-1.34 3-3-1.34-3-3-3-3 1.34-3 3zM10 24c0 1.66 1.34 3 3 3s3-1.34 3-3-1.34-3-3-3-3 1.34-3 3zM28.34 22h-8.68c0.22 0.63 0.34 1.3 0.34 2s-0.12 1.37-0.34 2h8.68c-0.22-0.63-0.34-1.3-0.34-2s0.12-1.37 0.34-2zM0 38c0 2.21 1.79 4 4 4h40c2.21 0 4-1.79 4-4l-0-28c0-2.21-1.79-4-4-4h-40c-2.21 0-4 1.79-4 4v28zM13 31c-3.87 0-7-3.13-7-7s3.13-7 7-7h22c3.87 0 7 3.13 7 7s-3.13 7-7 7h-22z"></path>
</symbol>
<symbol id="icon-planet" viewBox="0 0 48 48">
<path d="M2.080 2.081c-3.25 3.25-2.090 10.12 2.34 17.82-0.28 1.32-0.42 2.689-0.42 4.099 0 11.050 8.95 20 20 20 1.41 0 2.779-0.141 4.1-0.42 7.7 4.43 14.57 5.59 17.82 2.34s2.090-10.119-2.34-17.82c0.279-1.319 0.42-2.69 0.42-4.1 0-11.050-8.95-20-20-20-1.41 0-2.78 0.141-4.1 0.42-7.7-4.429-14.57-5.589-17.82-2.339zM41.96 42.59c-12.090 3.871-42.521-30.739-36.32-36.949 1.44-1.431 4.48-0.811 8.25 1.1-1.67 0.98-3.17 2.19-4.479 3.59 4.219 10.58 17.829 24.089 28.439 28.099 1.37-1.309 2.551-2.82 3.5-4.479 1.58 3.43 1.98 6.479 0.61 8.639z"></path>
</symbol>
<symbol id="icon-pencil" viewBox="0 0 48 48">
<path d="M5.561 20.207c-0.979 0.979-1.45 2.38-1.689 3.8l-3.812 18.020c-0.54 3.201 2.67 6.421 5.911 5.921l18.041-3.761c1.32-0.239 2.75-0.65 3.73-1.63l19.11-19.131c1.53-1.539 1.53-4.029 0-5.569l-16.69-16.71c-1.54-1.53-4.030-1.53-5.561 0l-19.040 19.060zM23.901 39.437l-9.34 1.791-7.74-7.75 1.779-9.351 13.911-13.93c0.77-0.771 2.010-0.771 2.78 0 0.771 0.77 0.771 2.020 0 2.79l-12.861 12.88c-0.96 0.96-0.96 2.521 0 3.479 0.96 0.961 2.51 0.961 3.47 0l12.871-12.88c0.771-0.77 2.010-0.77 2.78 0 0.771 0.771 0.771 2.011 0 2.78l-12.861 12.88c-0.96 0.96-0.96 2.521 0 3.48 0.96 0.96 2.511 0.96 3.47 0l12.871-12.88c0.761-0.761 2.011-0.761 2.781 0 0.77 0.77 0.77 2.020 0 2.789l-13.911 13.922z"></path>
</symbol>
<symbol id="icon-pen" viewBox="0 0 48 48">
<path d="M23.11 27.641l-16.95 16.949c-0.36 0.36-0.58 0.86-0.58 1.41 0 1.1 0.89 2 2 2 0.29 0 0.56-0.061 0.81-0.17 0 0 28.24-12.24 28.561-12.391 0.659-0.299 1.17-0.879 1.37-1.6l4.57-16.47 0.92 0.91c0.959 0.96 2.51 0.96 3.469 0 0.961-0.96 0.961-2.511 0-3.47l-14.091-14.089c-0.959-0.96-2.51-0.96-3.469 0-0.961 0.96-0.961 2.511 0 3.47l0.91 0.91-16.5 4.59c-0.72 0.211-1.3 0.73-1.6 1.41l-12.37 28.541c-0.1 0.239-0.16 0.5-0.16 0.779 0 1.11 0.9 2 2 2 0.57 0 1.080-0.23 1.44-0.609l16.92-16.92c-0.23-0.591-0.36-1.221-0.36-1.891 0-2.76 2.24-5 5-5s5 2.24 5 5-2.24 5-5 5c-0.67 0-1.3-0.13-1.89-0.359z"></path>
</symbol>
<symbol id="icon-gift" viewBox="0 0 48 48">
<path d="M17 2.984c-3.91-3.91-10.17-3.98-14.070-0.069-3.91 3.899-3.91 10.239 0 14.14 1.95 1.949 4.48 2.93 7.030 2.93h-7.76c-1.22 0-2.2 0.98-2.2 2.2v4.599c0 1.221 0.98 2.201 2.2 2.201h1.8v15c0 2.209 1.79 4 4 4h32c2.21 0 4-1.791 4-4v-15h1.8c1.22 0 2.2-0.98 2.2-2.201v-4.599c0-1.22-0.98-2.2-2.2-2.2h-7.771c2.561 0 5.091-0.98 7.040-2.93 3.911-3.9 3.911-10.24 0-14.14-3.899-3.912-10.159-3.841-14.069 0.069l-7 7-7-7zM29.18 11.724l5.28-5.28c1.96-1.95 5.12-1.95 7.080 0 1.95 1.96 1.95 5.12 0 7.080-0.979 0.97-2.261 1.46-3.54 1.46h-7.27c-1.101 0-2-0.9-2-2 0-0.481 0.17-0.91 0.45-1.26zM13.54 6.444l5.13 5.13c0.359 0.37 0.58 0.86 0.58 1.41 0 1.1-0.9 2-2 2h-7.25c-1.28 0-2.561-0.49-3.54-1.46-1.95-1.96-1.95-5.12 0-7.080 1.96-1.95 5.12-1.95 7.080 0zM19 19.984h10v20.799c0 1.221-0.98 2.201-2.2 2.201h-5.6c-1.22 0-2.2-0.98-2.2-2.201v-20.799z"></path>
</symbol>
<symbol id="icon-food" viewBox="0 0 48 48">
<path d="M23.311 9.681c-2.96 2.96-2.271 6.81-3.261 10.56l-16.6-16.761c-0.36-0.38-0.88-0.62-1.45-0.62-1.1 0-2 0.89-2 2v0.68c0 6.030 2.601 17.19 10.721 26.13l-9.561 9.551c-1.55 1.549-1.55 4.069 0 5.619 1.55 1.551 4.070 1.551 5.61 0l9.53-9.54 5.7 5.7 4.92-4.47 8.311 8.31c1.539 1.551 4.060 1.551 5.609 0 1.551-1.55 1.551-4.070 0-5.619l-13.151-13.261c3.791-1.040 7.67-0.31 10.631-3.271l8.939-8.939c0.99-0.98 0.99-2.58 0-3.569-0.99-0.991-2.59-0.991-3.57 0l-7.869 7.859c-0.59 0.59-1.551 0.59-2.141 0-0.6-0.59-0.6-1.55 0-2.14l7.86-7.87c0.989-0.98 0.989-2.58 0-3.57-0.99-0.989-2.59-0.989-3.569 0l-7.87 7.86c-0.59 0.6-1.55 0.6-2.14 0-0.59-0.59-0.59-1.551 0-2.14l7.86-7.87c0.99-0.98 0.99-2.58 0-3.57s-2.59-0.99-3.57 0l-8.939 8.941z"></path>
</symbol>
<symbol id="icon-lollipop" viewBox="0 0 48 48">
<path d="M21 34.82v10.68c0 1.38 1.12 2.5 2.5 2.5s2.5-1.12 2.5-2.5l-0-10.68c8.48-1.21 15-8.5 15-17.32 0-9.67-7.83-17.5-17.5-17.5s-17.5 7.83-17.5 17.5c0 8.82 6.52 16.11 15 17.32zM25 19.41c0.939-1.57 0.1-3.189-1.78-3.189-1.94 0-2.84 1.719-2.84 4.029 0 2.25 2.030 5.189 4.62 5.189 4.38 0 7.5-3.5 7.5-7.439 0-5.439-4.37-9.47-9.5-9.47-6.060 0-9.75 4.72-9.75 10.47 0 1.34 0.020 2.8 0.4 4.74 0.29 1.449-1.26 1.59-1.65 0.63-0.69-1.681-1.44-4.37-1.44-6.37 0-7.811 5.25-13 12.44-13 6.88 0 13 5.689 13 13 0 4.75-3.5 11-10.439 11-5.431 0-9.281-3.5-9.281-9 0-3.75 2.56-7.5 7.25-7.5 3.72 0 5.47 3.471 5.47 5.12 0 0.7-0.141 2.46-1.189 3.38-1.221 1.061-3.531-0.16-2.811-1.59z"></path>
</symbol>
<symbol id="icon-flag" viewBox="0 0 48 48">
<path d="M6 34.681c0 0 3-2.681 9-2.681 7.040 0 12.689 5 18.779 5 5.201 0 9-2.25 11.061-4.319 0.66-0.661 1.16-1.801 1.16-2.87v-24.38c0-1.221-0.84-2.221-2.070-2.221-0.83 0-1.46 0.5-2.090 1.13-0.85 0.849-3.34 2.66-9.311 2.66-5.449 0-9.77-5-16.81-5-6.78-0-9.719 2.21-9.719 2.21v-1.71c0-1.38-1.12-2.5-2.5-2.5s-2.5 1.12-2.5 2.5v43c0 1.38 1.12 2.5 2.5 2.5s2.5-1.12 2.5-2.5v-10.819zM10 10v16c0 1.1-0.9 2-2 2s-2-0.9-2-2l-0-16c0-1.1 0.9-2 2-2s2 0.9 2 2z"></path>
</symbol>
<symbol id="icon-snowflake" viewBox="0 0 48 48">
<path d="M14.5 24.502c0 1 0.16 1.97 0.44 2.871l-4.080 2.35-7.26-1.94c-1.31-0.35-2.66 0.43-3.020 1.729-0.35 1.311 0.43 2.65 1.75 3l5.87 1.57-1.58 5.84c-0.35 1.301 0.43 2.65 1.74 3 1.32 0.35 2.67-0.43 3.020-1.738l1.94-7.221 4.27-2.451c1.11 1.010 2.46 1.771 3.95 2.172v5.5l-5.32 4.488c-0.96 0.99-0.96 2.59 0 3.59 0.96 0.99 2.52 0.99 3.48 0l4.3-4.439 4.3 4.439c0.96 0.99 2.52 0.99 3.479 0 0.961-1 0.961-2.6 0-3.59l-5.319-4.488v-5.5c1.49-0.4 2.84-1.162 3.95-2.172l4.27 2.451 1.94 7.221c0.35 1.309 1.699 2.088 3.020 1.738 1.311-0.35 2.091-1.699 1.74-3l-1.58-5.84 5.87-1.57c1.32-0.35 2.1-1.689 1.75-3-0.359-1.299-1.71-2.078-3.020-1.729l-7.261 1.939-4.079-2.35c0.279-0.9 0.439-1.871 0.439-2.871s-0.16-1.97-0.439-2.88l4.079-2.34 7.261 1.94c1.31 0.35 2.66-0.431 3.020-1.73 0.35-1.31-0.43-2.65-1.75-3l-5.87-1.57 1.58-5.84c0.351-1.3-0.43-2.649-1.74-3-1.32-0.35-2.67 0.43-3.020 1.74l-1.94 7.22-4.27 2.45c-1.11-1.010-2.46-1.77-3.95-2.17v-4.5l5.319-5.49c0.961-0.99 0.961-2.59 0-3.59-0.96-0.99-2.52-0.99-3.479 0l-4.3 4.442-4.3-4.44c-0.96-0.99-2.52-0.99-3.48 0-0.96 1-0.96 2.6 0 3.59l5.32 5.49v4.5c-1.49 0.4-2.84 1.16-3.95 2.17l-4.27-2.45-1.94-7.22c-0.35-1.311-1.7-2.090-3.020-1.74-1.31 0.351-2.090 1.7-1.74 3l1.58 5.84-5.87 1.57c-1.32 0.35-2.1 1.69-1.75 3 0.36 1.3 1.71 2.080 3.020 1.73l7.26-1.94 4.080 2.34c-0.28 0.91-0.44 1.879-0.44 2.879zM24 29.002c-2.49 0-4.5-2.010-4.5-4.5s2.010-4.5 4.5-4.5 4.5 2.010 4.5 4.5c0 2.49-2.010 4.5-4.5 4.5z"></path>
</symbol>
<symbol id="icon-sunny" viewBox="0 0 48 48">
<path d="M24.625 18c2.161 0.5 3.879 2.34 4.379 4.35 0.172 0.94 0.99 1.65 1.971 1.65 1.1 0 2-0.9 2-2 0-1.439-1.209-3.63-2.859-5.27-1.622-1.6-3.552-2.73-5.142-2.73-1.1 0-2 0.931-2 2.030 0.001 0.98 0.711 1.8 1.651 1.97zM5.975 23.5c0 1.010 0.080 2.010 0.25 2.971l-3.49 1.14c-1.32 0.43-2.040 1.84-1.61 3.149 0.43 1.32 1.84 2.030 3.15 1.61l3.49-1.14c0.89 1.8 2.080 3.43 3.5 4.81l-2.16 2.979c-0.81 1.12-0.56 2.681 0.56 3.49 1.11 0.811 2.68 0.57 3.49-0.55l2.161-2.979c1.73 0.92 3.64 1.56 5.66 1.84v3.68c0 1.38 1.12 2.5 2.5 2.5s2.5-1.12 2.5-2.5v-3.68c2.020-0.28 3.93-0.92 5.66-1.84l2.16 2.979c0.811 1.12 2.381 1.36 3.49 0.55 1.119-0.81 1.369-2.37 0.561-3.49l-2.17-2.979c1.43-1.38 2.619-3.010 3.5-4.81l3.5 1.14c1.309 0.42 2.719-0.29 3.148-1.61 0.43-1.31-0.289-2.72-1.609-3.149l-3.49-1.14c0.17-0.961 0.25-1.961 0.25-2.971s-0.080-2.010-0.25-2.97l3.49-1.141c1.32-0.43 2.039-1.84 1.609-3.149-0.43-1.32-1.84-2.030-3.148-1.61l-3.5 1.14c-0.881-1.799-2.070-3.43-3.5-4.819l2.17-2.97c0.809-1.12 0.559-2.681-0.561-3.49-1.109-0.81-2.68-0.57-3.49 0.55l-2.16 2.97c-1.74-0.91-3.641-1.55-5.66-1.829l-0-3.682c0-1.38-1.12-2.5-2.5-2.5s-2.5 1.12-2.5 2.5v3.681c-2.020 0.279-3.93 0.919-5.66 1.829l-2.161-2.97c-0.81-1.12-2.38-1.359-3.49-0.55-1.12 0.81-1.37 2.37-0.56 3.49l2.16 2.97c-1.42 1.39-2.61 3.021-3.5 4.819l-3.49-1.14c-1.31-0.42-2.72 0.29-3.15 1.61-0.43 1.31 0.29 2.72 1.61 3.149l3.49 1.141c-0.17 0.961-0.25 1.961-0.25 2.971zM10.975 23.5c0-6.9 5.6-12.5 12.5-12.5s12.5 5.6 12.5 12.5-5.6 12.5-12.5 12.5c-6.9 0-12.5-5.6-12.5-12.5z"></path>
</symbol>
<symbol id="icon-arrow-up" viewBox="0 0 48 48">
<path d="M44.22 22.62c0.49 0.67 0.78 1.49 0.78 2.38 0 2.21-1.79 4-4 4h-4c-1.1 0-2 0.9-2 2v12c0 2.21-1.79 4-4 4l-14-0c-2.21 0-4-1.79-4-4l0-12c0-1.1-0.9-2-2-2l-4-0c-2.21 0-4-1.79-4-4 0-0.89 0.29-1.71 0.78-2.38l16.67-20.15c1.96-1.96 5.14-1.96 7.1 0l16.67 20.15z"></path>
</symbol>
<symbol id="icon-arrow-down" viewBox="0 0 48 48">
<path d="M44.22 25.38c0.49-0.67 0.78-1.49 0.78-2.38 0-2.21-1.79-4-4-4h-4c-1.1 0-2-0.899-2-2v-12c0-2.21-1.79-4-4-4l-14 0c-2.21 0-4 1.79-4 4v12c0 1.101-0.9 2-2 2h-4c-2.21 0-4 1.79-4 4 0 0.89 0.29 1.71 0.779 2.38l16.671 20.15c1.96 1.96 5.14 1.96 7.1 0l16.67-20.15z"></path>
</symbol>
<symbol id="icon-arrow-left" viewBox="0 0 48 48">
<path d="M22.62 3.78c0.67-0.49 1.489-0.78 2.38-0.78 2.21 0 4 1.79 4 4v4c0 1.101 0.9 2 2 2h12c2.21 0 4 1.79 4 4v14c0 2.21-1.79 4-4 4l-12-0c-1.1 0-2 0.9-2 2v4c0 2.21-1.79 4-4 4-0.891 0-1.71-0.29-2.38-0.78l-20.15-16.67c-1.96-1.96-1.96-5.14 0-7.1l20.15-16.67z"></path>
</symbol>
<symbol id="icon-arrow-right" viewBox="0 0 48 48">
<path d="M25.38 3.78c-0.67-0.49-1.49-0.78-2.38-0.78-2.21 0-4 1.79-4 4v4c0 1.101-0.9 2-2 2h-12c-2.21 0-4 1.79-4 4v14c0 2.21 1.79 4 4 4h12c1.1 0 2 0.9 2 2v4c0 2.21 1.79 4 4 4 0.89 0 1.71-0.29 2.38-0.78l20.149-16.67c1.961-1.96 1.961-5.14 0-7.1l-20.149-16.67z"></path>
</symbol>
<symbol id="icon-arrow-top-right" viewBox="0 0 48 48">
<path d="M41.598 34.99c-0.119 0.82-0.5 1.611-1.129 2.242-1.561 1.559-4.090 1.559-5.65 0l-2.83-2.83c-0.779-0.781-2.051-0.781-2.83 0l-9.489 9.479c-1.561 1.57-4.090 1.57-5.65 0l-9.9-9.898c-1.57-1.561-1.57-4.092 0-5.65l9.48-9.491c0.78-0.78 0.78-2.050 0-2.83l-2.83-2.83c-1.56-1.56-1.56-4.090 0-5.649 0.63-0.63 1.42-1.010 2.24-1.13l27.031-3.461c2.779 0 5.020 2.24 5.020 5.021l-3.463 27.027z"></path>
</symbol>
<symbol id="icon-arrow-top-left" viewBox="0 0 48 48">
<path d="M6.405 34.99c0.12 0.82 0.5 1.611 1.13 2.242 1.56 1.559 4.090 1.559 5.65 0l2.83-2.83c0.78-0.781 2.050-0.781 2.83 0l9.489 9.479c1.561 1.57 4.090 1.57 5.65 0l9.9-9.898c1.561-1.561 1.561-4.092 0-5.65l-9.48-9.491c-0.779-0.78-0.779-2.050 0-2.83l2.82-2.83c1.57-1.56 1.57-4.090 0-5.649-0.621-0.63-1.41-1.010-2.23-1.13l-27.039-3.462c-2.77 0-5.020 2.24-5.010 5.021l3.46 27.028z"></path>
</symbol>
<symbol id="icon-arrow-bottom-right" viewBox="0 0 48 48">
<path d="M41.598 13.005c-0.119-0.82-0.5-1.61-1.129-2.24-1.561-1.56-4.090-1.56-5.65 0l-2.83 2.83c-0.779 0.78-2.051 0.78-2.83 0l-9.49-9.48c-1.56-1.56-4.090-1.56-5.65 0l-9.9 9.9c-1.57 1.561-1.57 4.091 0 5.65l9.48 9.49c0.78 0.779 0.78 2.050 0 2.83l-2.83 2.829c-1.56 1.561-1.56 4.091 0 5.65 0.63 0.63 1.42 1.010 2.24 1.13l27.030 3.46c2.779 0.010 5.020-2.24 5.020-5.010l-3.461-27.039z"></path>
</symbol>
<symbol id="icon-arrow-bottom-left" viewBox="0 0 48 48">
<path d="M6.405 13.005c0.12-0.82 0.5-1.61 1.13-2.24 1.56-1.56 4.090-1.56 5.65 0l2.83 2.83c0.78 0.78 2.050 0.78 2.83 0l9.489-9.48c1.561-1.56 4.090-1.56 5.65 0l9.9 9.9c1.561 1.561 1.561 4.091 0 5.65l-9.48 9.49c-0.779 0.779-0.779 2.050 0 2.83l2.82 2.829c1.57 1.561 1.57 4.091 0 5.65-0.621 0.63-1.41 1.010-2.23 1.13l-27.040 3.46c-2.77 0.010-5.020-2.24-5.010-5.010l3.461-27.039z"></path>
</symbol>
<symbol id="icon-chevron-circle-up" viewBox="0 0 24 28">
<path d="M18.203 17.797l1.594-1.594c0.391-0.391 0.391-1.016 0-1.406l-7.094-7.094c-0.391-0.391-1.016-0.391-1.406 0l-7.094 7.094c-0.391 0.391-0.391 1.016 0 1.406l1.594 1.594c0.391 0.391 1.016 0.391 1.406 0l4.797-4.797 4.797 4.797c0.391 0.391 1.016 0.391 1.406 0zM24 14c0 6.625-5.375 12-12 12s-12-5.375-12-12 5.375-12 12-12 12 5.375 12 12z"></path>
</symbol>
<symbol id="film" viewBox="0 0 32 32">
<path d="M0 4v24h32v-24h-32zM6 26h-4v-4h4v4zM6 18h-4v-4h4v4zM6 10h-4v-4h4v4zM24 26h-16v-20h16v20zM30 26h-4v-4h4v4zM30 18h-4v-4h4v4zM30 10h-4v-4h4v4zM12 10v12l8-6z"></path>
</symbol>
</defs>
</svg>
